Coordinates
version=1
nRows=19
nColumns=36
inDegrees=yes

Units are S.I. units (second, meters, Newtons, ...)
If the header above contains a line with 'inDegrees', this indicates whether rotational values are in degrees (yes) or radians (no).

endheader
time	pelvis_tilt	pelvis_list	pelvis_rotation	pelvis_tx	pelvis_ty	pelvis_tz	hip_flexion_r	hip_adduction_r	hip_rotation_r	knee_angle_r	knee_angle_r_beta	ankle_angle_r	subtalar_angle_r	mtp_angle_r	hip_flexion_l	hip_adduction_l	hip_rotation_l	knee_angle_l	knee_angle_l_beta	ankle_angle_l	subtalar_angle_l	mtp_angle_l	lumbar_extension	lumbar_bending	lumbar_rotation	arm_flex_r	arm_add_r	arm_rot_r	elbow_flex_r	pro_sup_r	arm_flex_l	arm_add_l	arm_rot_l	elbow_flex_l	pro_sup_l
      2.73333330	     -0.85170048	      1.21558427	     -0.08701758	     -0.01555240	      0.93047946	     -0.03776486	     -3.80780749	     -1.19768752	      2.89094453	      0.78737262	      0.01374224	      9.24689120	     -2.57475128	     -7.49999987	     -3.45405024	     -1.66217276	     -0.13932825	      0.49102361	      0.00856998	      8.11209054	     -1.56656419	     -7.49999987	      0.83900112	      1.93344378	      8.40341177	     70.95228110	     13.90864558	     51.65593881	    145.37023807	     97.27248441	     81.93510950	     15.48616189	     72.13449162	    114.40058162	     85.17846414
      2.75000000	     -0.80866159	      1.24113622	     -0.03285258	     -0.01505003	      0.92791427	     -0.03759382	     -3.87275018	     -1.21753165	      3.00804897	      0.82951709	      0.01447780	      9.12037045	     -2.97244991	     -7.49999987	     -3.51250970	     -1.63930343	      0.02023110	      0.50665391	      0.00884278	      8.11424792	     -1.69910263	     -7.49999987	      0.60552945	      1.94380199	      8.38062867	     71.19356771	     14.33826582	     50.53014155	    145.54593517	    101.42827852	     82.40303167	     15.66738993	     71.58031712	    114.98626873	     88.90060175
      2.76666670	     -0.73848376	      1.26661065	      0.05253234	     -0.01568906	      0.92558203	     -0.03801636	     -3.95524484	     -1.23201160	      2.97868341	      0.92480724	      0.01614093	      9.23042654	     -3.08301436	     -7.49999987	     -3.61564905	     -1.62556871	      0.22387423	      0.53060230	      0.00926076	      8.19605275	     -1.72765824	     -7.49999987	      0.21644932	      1.88681149	      8.42695901	     71.00012824	     14.78671129	     47.76474337	    145.45948289	    100.21480681	     83.07278293	     15.73294204	     70.97362385	    114.97889795	     89.82419302
      2.78333330	     -0.61707990	      1.27177358	      0.09891142	     -0.01691412	      0.92801239	     -0.03920864	     -4.05660184	     -1.25568096	      2.89366377	      1.06440161	      0.01857731	      9.10336480	     -3.17814939	     -7.49999987	     -3.75473032	     -1.62029177	      0.35940624	      0.55122124	      0.00962063	      8.12427673	     -1.89774912	     -7.49999987	     -0.12496378	      1.87584559	      7.95402190	     70.79719234	     15.41437117	     46.73085139	    145.16145140	     99.97187315	     83.51016973	     15.27518253	     71.07918961	    115.04695768	     88.43708538
      2.80000000	     -0.52252200	      1.26587116	      0.19929716	     -0.01557612	      0.92988291	     -0.03989501	     -4.14295004	     -1.25115444	      2.85015307	      1.16600651	      0.02035065	      8.97928594	     -3.32648275	     -7.49999987	     -3.87583647	     -1.60932654	      0.61221560	      0.57347769	      0.01000907	      8.00737651	     -2.21648185	     -7.49999987	     -0.05929333	      1.96157761	      8.90861788	     69.80399681	     14.18630765	     45.40029374	    145.84013267	     99.48564665	     83.30448349	     15.28009605	     71.39999601	    114.93171955	     88.36832961
      2.81666670	     -0.45001959	      1.26868274	      0.29435202	     -0.01617786	      0.93071604	     -0.04026649	     -4.20226637	     -1.27516916	      2.70288266	      1.28813973	      0.02248228	      8.90495078	     -3.30717577	     -7.49999987	     -3.94592241	     -1.58885056	      0.74596510	      0.60499473	      0.01055915	      7.95414868	     -2.32595942	     -7.49999987	      0.00565380	      1.96433742	      9.26306097	     69.19536028	     13.82327667	     44.69667206	    146.05265542	     99.61008363	     82.99966001	     15.06413120	     71.96229994	    114.82941185	     88.88691238
      2.83333330	     -0.47215110	      1.28360700	      0.29507509	     -0.01526364	      0.92987846	     -0.04051051	     -4.13643836	     -1.31263665	      2.69875080	      1.40945776	      0.02459968	      8.82367395	     -3.40621419	     -7.49999987	     -3.91868919	     -1.54481333	      0.77255401	      0.61909498	      0.01080525	      7.94438136	     -2.35489964	     -7.49999987	     -0.21814719	      1.97803248	      9.40493300	     69.18756063	     13.87344283	     44.60967666	    145.99984679	     98.99549130	     83.18457686	     15.28828869	     71.91636680	    115.48850991	     90.01559895
      2.85000000	     -0.47307815	      1.28250440	      0.35470427	     -0.01661340	      0.92787785	     -0.04111810	     -4.06338132	     -1.33623712	      2.62179316	      1.53386351	      0.02677097	      8.88780002	     -3.45921475	     -7.49999987	     -3.88156589	     -1.50846175	      1.01253620	      0.64668631	      0.01128681	      7.96518350	     -2.61310472	     -7.49999987	     -0.54627039	      2.01807880	      9.52723163	     69.43139555	     14.08064503	     42.92428216	    145.94485029	     98.43562215	     83.62720995	     15.72597092	     71.63870288	    115.89456182	     89.98695238
      2.86666670	     -0.40220251	      1.29245368	      0.37457717	     -0.01603387	      0.92891164	     -0.04153461	     -4.09983923	     -1.37064499	      2.72635205	      1.60222841	      0.02796416	      8.78548756	     -3.67462264	     -7.49999987	     -3.92834030	     -1.47248876	      1.05826404	      0.66439631	      0.01159590	      7.96345593	     -2.71061503	     -7.49999987	     -0.99415294	      2.09970834	      9.12148400	     69.39459730	     14.32850169	     41.60305835	    145.35093550	     97.48892798	     84.06701746	     15.72147210	     71.54782211	    116.15664878	     90.31041533
      2.88333330	     -0.40405184	      1.29817592	      0.47402624	     -0.01761822	      0.93184136	     -0.04218947	     -4.02368087	     -1.39924082	      2.53355413	      1.70358615	      0.02973319	      8.78478885	     -3.59390872	     -7.49999987	     -3.85791693	     -1.43799561	      1.28238653	      0.69268985	      0.01208972	      7.90190464	     -2.87589921	     -7.49999987	     -1.32500024	      2.12992976	      8.85712328	     69.47745918	     14.73379925	     40.08341604	    145.18976163	     97.70444009	     84.44899158	     15.92112361	     72.03353515	    115.47936912	     87.40091844
      2.90000000	     -0.39329699	      1.32755600	      0.51700999	     -0.01936789	      0.93338373	     -0.04254811	     -3.89615065	     -1.45254556	      2.40572456	      1.84553480	      0.03221066	      8.66741364	     -3.58544992	     -7.49999987	     -3.78758332	     -1.37677187	      1.33275118	      0.71952877	      0.01255815	      7.78240698	     -2.90322853	     -7.49999987	     -1.56597524	      2.13237033	      8.96844488	     69.95662960	     14.71208314	     40.44436952	    145.27101983	     98.20798854	     84.50727645	     16.07675247	     72.41203025	    115.04749193	     87.01445449
      2.91666670	     -0.35292507	      1.36052260	      0.56190086	     -0.01960506	      0.93129574	     -0.04351877	     -3.78429133	     -1.51073415	      2.50690941	      2.00630589	      0.03501664	      8.44540943	     -3.93825739	     -7.49999987	     -3.74802035	     -1.30840767	      1.46710049	      0.76359505	      0.01332725	      7.57953832	     -3.22371893	     -7.49999987	     -1.55084724	      2.18740351	      8.21999862	     69.40032691	     15.70895860	     40.05757371	    144.99083724	     97.32990776	     84.29735497	     15.35846565	     72.57822001	    114.85399936	     89.04070329
      2.93333330	     -0.34488086	      1.41490938	      0.67129037	     -0.02173117	      0.93126406	     -0.04474096	     -3.58366852	     -1.61326048	      2.34709413	      2.21386980	      0.03863932	      8.47545761	     -3.89863912	     -7.49999987	     -3.61902573	     -1.20992895	      1.61886203	      0.82463847	      0.01439266	      7.45120744	     -3.47331641	     -7.49999987	     -1.43082264	      2.16484219	      7.99816598	     69.27820020	     16.47280655	     39.52678595	    144.73144676	     97.30269885	     84.53401946	     15.07420093	     72.40655216	    115.04101702	     87.45418101
      2.95000000	     -0.31161460	      1.46709252	      0.62209454	     -0.02166639	      0.93211949	     -0.04422487	     -3.40983328	     -1.70827601	      2.55420391	      2.41293568	      0.04211367	      8.37821141	     -4.12917879	     -7.49999987	     -3.54703135	     -1.12903882	      1.52949543	      0.87531414	      0.01527711	      7.27236627	     -3.50552196	     -7.49999987	     -1.54797065	      2.18349272	      7.59052457	     69.04149290	     16.74733644	     39.81754669	    144.19080377	     97.26030617	     84.42374744	     14.65166366	     72.26859811	    116.14154577	     88.26603080
      2.96666670	     -0.33763520	      1.48140890	      0.60007380	     -0.02322962	      0.93071472	     -0.04523206	     -3.10094616	     -1.76531809	      2.51825547	      2.70093439	      0.04714020	      8.42413602	     -4.24077811	     -7.49999987	     -3.39500919	     -1.05761761	      1.68825650	      0.93266542	      0.01627808	      7.16704697	     -3.84439209	     -7.49999987	     -1.52423033	      2.18015899	      7.88809654	     69.71537725	     16.81285367	     40.24340207	    144.28415467	     97.54821169	     84.59056517	     14.67377374	     71.97998662	    116.63232303	     87.62810890
      2.98333330	     -0.36954504	      1.53989443	      0.38029586	     -0.02407323	      0.93209238	     -0.04496584	     -2.73013669	     -1.86246403	      2.88573338	      3.06194760	      0.05344107	      8.38178837	     -4.65546620	     -7.49999987	     -3.25197007	     -0.94706235	      1.47449979	      1.01517672	      0.01771818	      7.02405413	     -3.85497487	     -7.49999987	     -1.21342568	      2.10567197	      8.11592840	     70.39057698	     16.81297368	     42.80885198	    143.99222287	     99.13959335	     84.24765061	     14.19929300	     71.93399944	    117.96245013	     85.91514526
      3.00000000	     -0.38908817	      1.56150861	      0.18835000	     -0.02394380	      0.92912879	     -0.04606991	     -2.35835765	     -1.94806300	      2.80562619	      3.52262959	      0.06148148	      8.66527830	     -4.45352097	     -7.49999987	     -3.14593228	     -0.86384798	      1.46280518	      1.12402684	      0.01961797	      6.94161102	     -4.13761217	     -7.49999987	     -1.53163494	      2.18845855	      7.66717880	     69.99526545	     17.52854377	     41.95761080	    143.34332163	     97.90205267	     84.62297727	     13.98988683	     71.46093459	    118.04747827	     88.93463022
      3.01666670	     -0.48313493	      1.60609534	     -0.01878213	     -0.02738643	      0.93131821	     -0.04572593	     -1.87078088	     -2.02964729	      3.08814758	      3.94314195	      0.06882081	      8.72679598	     -4.86748813	     -7.49999987	     -2.90884590	     -0.77615566	      1.25419600	      1.27594356	      0.02226942	      6.97488666	     -4.09940092	     -7.49999987	     -1.69128302	      2.17356451	      7.93704400	     69.99212219	     17.61461982	     41.51581727	    143.58837909	     96.49502814	     84.98779009	     14.04302069	     71.63965739	    118.33267855	     87.58611645
      3.03333330	     -0.45133193	      1.62665350	     -0.15837951	     -0.02857145	      0.93195630	     -0.04547079	     -1.62076429	     -2.09980854	      3.07227526	      4.13457087	      0.07216187	      8.77020696	     -4.76643019	     -7.49999987	     -2.74526841	     -0.70761926	      1.33813163	      1.42186661	      0.02481625	      6.78710024	     -4.53656558	     -7.49999987	     -1.78835804	      2.17695206	      8.26572254	     69.70998031	     17.41822240	     40.81249198	    143.55322668	     97.22245666	     85.09503661	     13.82199299	     71.44352262	    118.03725820	     88.51715967
